# File created by Blade
# Date/Time:  Wed Apr 08 14:47:20 2015
# Frame Rate: 120.000 fps
#------------------------------------------------------
:FULLY-SPECIFIED
:DEGREES
1407
root 3.979894 32.182451 -14.782703 16.876852 -19.178214 -2.206154
Spine -12.478125 0.826055 -1.735700
Head 6.695475 -4.471272 3.397635
LeftShoulder -16.768208 46.638363 7.484165
LeftArm 58.588724 13.917703 -69.692670
LeftForeArm 9.014540 -0.000000 118.219641
LeftHand 6.163838 -0.000000 -2.512049
LeftHandThumb1 -26.253704 0.000000 33.147579
RightShoulder -2.523254 -8.159932 -18.166096
RightArm 20.879876 -36.973460 80.359054
RightForeArm -2.372554 -0.000000 112.374752
RightHand 13.722513 -0.000000 -6.621433
RightHandThumb1 -24.326973 -0.000000 -32.862282
LeftUpLeg -32.437808 6.171224 -1.777425
LeftLeg 15.815203 -0.000000 -0.000000
LeftFoot -7.052236 17.878767 -17.976909
LeftToeBase -3.213344 -0.000000 0.000000
RightUpLeg -5.972739 -11.590487 1.154104
RightLeg 26.691586 -0.000000 -0.000000
RightFoot -7.275278 -27.782424 14.870469
RightToeBase -4.168342 -0.000000 0.000000
1408
root 3.967912 32.157986 -14.921917 16.940100 -19.501417 -2.212147
Spine -12.436603 1.043420 -1.780801
Head 6.598475 -4.368210 3.302948
LeftShoulder -16.736131 46.568486 7.495658
LeftArm 58.721824 13.969850 -69.638404
LeftForeArm 9.048052 -0.000000 118.206915
LeftHand 6.063541 -0.000000 -2.850536
LeftHandThumb1 -26.253704 0.000000 33.147579
RightShoulder -2.450625 -8.054646 -18.214843
RightArm 21.041049 -37.111026 80.284624
RightForeArm -2.418460 -0.000000 112.355299
RightHand 13.743328 -0.000000 -6.503073
RightHandThumb1 -24.326973 -0.000000 -32.862282
LeftUpLeg -32.838920 6.348172 -1.725976
LeftLeg 16.063954 -0.000000 -0.000000
LeftFoot -6.980183 18.091244 -17.860497
LeftToeBase -3.015225 -0.000000 0.000000
RightUpLeg -5.848862 -11.645387 1.206889
RightLeg 25.938284 -0.000000 -0.000000
RightFoot -7.021613 -27.799867 14.484172
RightToeBase -6.035222 -0.000000 0.000000
1409
root 3.955757 32.132357 -15.066785 16.969212 -19.865857 -2.201779
Spine -12.337095 1.226294 -1.841164
Head 6.472127 -4.206711 3.200791
LeftShoulder -16.721425 46.461449 7.507453
LeftArm 58.779383 14.015829 -69.634299
LeftForeArm 9.072017 -0.000000 118.226480
LeftHand 6.035865 -0.000000 -3.083571
LeftHandThumb1 -26.253704 0.000000 33.147579
RightShoulder -2.352919 -7.920465 -18.278298
RightArm 21.211695 -37.273083 80.225007
RightForeArm -2.438305 -0.000000 112.320991
RightHand 13.786807 -0.000000 -6.443788
RightHandThumb1 -24.326973 -0.000000 -32.862282
LeftUpLeg -33.219718 6.557158 -1.685172
LeftLeg 16.320044 -0.000000 -0.000000
LeftFoot -6.884291 18.246501 -17.915059
LeftToeBase -3.037896 -0.000000 0.000000
RightUpLeg -5.736897 -11.624086 1.250303
RightLeg 25.264417 -0.000000 -0.000000
RightFoot -6.684118 -27.806743 13.959773
RightToeBase -8.502666 -0.000000 0.000000
1410
root 3.943788 32.106966 -15.213604 17.020077 -20.264037 -2.199555
Spine -12.266118 1.470679 -1.918099
Head 6.357297 -4.084894 3.129736
LeftShoulder -16.676468 46.426460 7.550188
LeftArm 58.899834 14.061762 -69.607235
LeftForeArm 9.108744 0.000000 118.238930
LeftHand 5.947764 0.000000 -3.183724
LeftHandThumb1 -26.253704 0.000000 33.147579
RightShoulder -2.298525 -7.769612 -18.327017
RightArm 21.320925 -37.424288 80.181747
RightForeArm -2.473700 -0.000000 112.294064
RightHand 13.805947 -0.000000 -6.378965
RightHandThumb1 -24.326973 -0.000000 -32.862282
LeftUpLeg -33.625897 6.823309 -1.655959
LeftLeg 16.589447 -0.000000 -0.000000
LeftFoot -6.780524 18.368700 -17.964488
LeftToeBase -3.075845 -0.000000 0.000000
RightUpLeg -5.644157 -11.521745 1.314828
RightLeg 24.593351 -0.000000 -0.000000
RightFoot -6.307293 -27.880016 13.291730
RightToeBase -10.409421 -0.000000 0.000000
1411
root 3.927970 32.081847 -15.366135 17.055152 -20.651503 -2.201035
Spine -12.162172 1.634464 -1.978017
Head 6.223166 -3.884448 3.043227
LeftShoulder -16.679683 46.370865 7.561602
LeftArm 58.964198 14.070714 -69.623886
LeftForeArm 9.136605 -0.000000 118.269254
LeftHand 5.902432 -0.000000 -3.356608
LeftHandThumb1 -26.253704 0.000000 33.147579
RightShoulder -2.231150 -7.662520 -18.363367
RightArm 21.536183 -37.624776 80.078932
RightForeArm -2.521372 -0.000000 112.231376
RightHand 13.830719 -0.000000 -6.459918
RightHandThumb1 -24.326973 -0.000000 -32.862282
LeftUpLeg -34.004679 7.037242 -1.586587
LeftLeg 16.824030 -0.000000 -0.000000
LeftFoot -6.644790 18.559865 -18.021329
LeftToeBase -3.187500 -0.000000 0.000000
RightUpLeg -5.547713 -11.388573 1.403782
RightLeg 23.975501 -0.000000 -0.000000
RightFoot -6.056497 -27.949259 12.592367
RightToeBase -12.749735 -0.000000 0.000000
1412
root 3.913828 32.056198 -15.519921 17.070368 -21.040669 -2.217127
Spine -12.023174 1.774427 -1.997935
Head 6.094225 -3.659490 2.932255
LeftShoulder -16.699371 46.302659 7.555400
LeftArm 58.994025 14.075283 -69.689447
LeftForeArm 9.283737 -0.000000 118.305359
LeftHand 5.814490 -0.000000 -3.577081
LeftHandThumb1 -26.253704 0.000000 33.147579
RightShoulder -2.147279 -7.567369 -18.420270
RightArm 21.746662 -37.795804 79.975612
RightForeArm -2.606109 -0.000000 112.196841
RightHand 13.842553 -0.000000 -6.277057
RightHandThumb1 -24.326973 -0.000000 -32.862282
LeftUpLeg -34.366353 7.262435 -1.506021
LeftLeg 17.068940 -0.000000 -0.000000
LeftFoot -6.488365 18.758966 -18.046180
LeftToeBase -3.344839 -0.000000 0.000000
RightUpLeg -5.397292 -11.209964 1.503180
RightLeg 23.309495 -0.000000 -0.000000
RightFoot -5.851370 -28.001174 11.802092
RightToeBase -14.512286 -0.000000 0.000000
1413
root 3.896922 32.031061 -15.681483 17.106213 -21.481131 -2.252917
Spine -11.886081 1.943690 -2.031658
Head 5.940163 -3.418582 2.845622
LeftShoulder -16.701419 46.230256 7.592748
LeftArm 59.001359 14.094657 -69.758271
LeftForeArm 9.296292 -0.000000 118.341364
LeftHand 5.811942 0.000000 -3.680940
LeftHandThumb1 -26.253704 0.000000 33.147579
RightShoulder -2.077358 -7.388386 -18.472503
RightArm 21.863525 -37.990179 79.941728
RightForeArm -2.700972 -0.000000 112.120867
RightHand 13.892105 -0.000000 -6.327290
RightHandThumb1 -24.326973 -0.000000 -32.862282
LeftUpLeg -34.727444 7.475616 -1.385820
LeftLeg 17.275481 -0.000000 -0.000000
LeftFoot -6.310247 19.034289 -18.039218
LeftToeBase -3.501007 -0.000000 0.000000
RightUpLeg -5.282173 -10.961152 1.622220
RightLeg 22.683960 -0.000000 -0.000000
RightFoot -6.004501 -28.082218 11.436439
RightToeBase -15.054448 -0.000000 0.000000
1414
root 3.880867 32.005060 -15.840849 17.129830 -21.910010 -2.290419
Spine -11.749755 2.086695 -2.045145
Head 5.822934 -3.182125 2.736088
LeftShoulder -16.695022 46.188414 7.629924
LeftArm 58.994986 14.114198 -69.831994
LeftForeArm 9.338051 0.000000 118.391133
LeftHand 5.763885 0.000000 -3.832540
LeftHandThumb1 -26.253704 0.000000 33.147579
RightShoulder -2.009687 -7.290196 -18.530975
RightArm 22.013017 -38.167497 79.886611
RightForeArm -2.790588 -0.000000 112.085987
RightHand 13.925463 -0.000000 -6.331963
RightHandThumb1 -24.326973 -0.000000 -32.862282
LeftUpLeg -35.076968 7.715067 -1.278620
LeftLeg 17.482434 -0.000000 -0.000000
LeftFoot -6.103135 19.307416 -17.975576
LeftToeBase -3.703926 -0.000000 0.000000
RightUpLeg -5.101153 -10.672361 1.735684
RightLeg 21.977391 -0.000000 -0.000000
RightFoot -6.428371 -28.107601 11.388431
RightToeBase -14.805721 -0.000000 0.000000
1415
root 3.866265 31.978369 -16.000900 17.153692 -22.306098 -2.319860
Spine -11.619326 2.176453 -2.041615
Head 5.721982 -2.900557 2.608103
LeftShoulder -16.701286 46.172598 7.646034
LeftArm 58.988033 14.118578 -69.932418
LeftForeArm 9.272371 -0.000000 118.434822
LeftHand 5.777828 0.000000 -3.919656
LeftHandThumb1 -26.253704 0.000000 33.147579
RightShoulder -1.943216 -7.176946 -18.603333
RightArm 22.130309 -38.351495 79.845408
RightForeArm -2.826204 -0.000000 112.035404
RightHand 13.991520 -0.000000 -6.322988
RightHandThumb1 -24.326973 -0.000000 -32.862282
LeftUpLeg -35.411116 7.834388 -1.128284
LeftLeg 17.660527 -0.000000 -0.000000
LeftFoot -5.891244 19.659117 -17.902011
LeftToeBase -3.958832 -0.000000 0.000000
RightUpLeg -4.899241 -10.435088 1.845266
RightLeg 21.209078 -0.000000 -0.000000
RightFoot -6.896222 -28.059098 11.335703
RightToeBase -15.381460 -0.000000 0.000000
1416
root 3.849100 31.952067 -16.164156 17.172231 -22.699631 -2.381528
Spine -11.463254 2.241479 -1.996199
Head 5.620774 -2.558522 2.467428
LeftShoulder -16.728967 46.180551 7.633343
LeftArm 58.991854 14.108943 -70.009120
LeftForeArm 9.274894 -0.000000 118.496665
LeftHand 5.714246 -0.000000 -3.858014
LeftHandThumb1 -26.253704 0.000000 33.147579
RightShoulder -1.871766 -7.085765 -18.657797
RightArm 22.262244 -38.519817 79.759748
RightForeArm -2.885165 -0.000000 112.026689
RightHand 13.987459 -0.000000 -6.299501
RightHandThumb1 -24.326973 -0.000000 -32.862282
LeftUpLeg -35.718174 7.995299 -0.969456
LeftLeg 17.798158 -0.000000 -0.000000
LeftFoot -5.657797 20.055895 -17.769815
LeftToeBase -4.166117 -0.000000 0.000000
RightUpLeg -4.674305 -10.203404 1.988893
RightLeg 20.425235 -0.000000 -0.000000
RightFoot -7.581572 -27.940550 11.560225
RightToeBase -15.508064 -0.000000 0.000000
1417
root 3.834190 31.925389 -16.325586 17.189231 -23.091552 -2.421039
Spine -11.325261 2.251353 -1.950190
Head 5.549425 -2.203394 2.290620
LeftShoulder -16.808028 46.223143 7.568534
LeftArm 59.000062 14.102512 -70.067735
LeftForeArm 9.283122 -0.000000 118.543189
LeftHand 5.681033 0.000000 -3.639576
LeftHandThumb1 -26.253704 0.000000 33.147579
RightShoulder -1.780460 -6.975973 -18.744518
RightArm 22.349263 -38.709294 79.718507
RightForeArm -2.926793 -0.000000 112.025227
RightHand 13.945833 -0.000000 -6.259512
RightHandThumb1 -24.326973 -0.000000 -32.862282
LeftUpLeg -36.007272 8.118688 -0.816620
LeftLeg 17.898444 -0.000000 -0.000000
LeftFoot -5.379981 20.463885 -17.569664
LeftToeBase -4.562184 -0.000000 0.000000
RightUpLeg -4.436323 -10.022692 2.106785
RightLeg 19.596205 -0.000000 -0.000000
RightFoot -8.159646 -27.870241 11.721595
RightToeBase -16.024749 -0.000000 0.000000
1418
root 3.814783 31.900173 -16.493959 17.241212 -23.467139 -2.519278
Spine -11.195500 2.237947 -1.842156
Head 5.486066 -1.828652 2.106405
LeftShoulder -16.888040 46.252310 7.490945
LeftArm 58.986712 14.057630 -70.126725
LeftForeArm 9.186774 -0.000000 118.597276
LeftHand 5.672308 -0.000000 -3.595414
LeftHandThumb1 -26.253704 0.000000 33.147579
RightShoulder -1.686217 -6.925571 -18.813774
RightArm 22.494861 -38.899517 79.630038
RightForeArm -2.928829 -0.000000 111.987053
RightHand 14.043323 -0.000000 -6.244107
RightHandThumb1 -24.326973 -0.000000 -32.862282
LeftUpLeg -36.285715 8.215972 -0.600922
LeftLeg 17.934554 -0.000000 -0.000000
LeftFoot -5.086322 20.999534 -17.261575
LeftToeBase -4.752685 -0.000000 0.000000
RightUpLeg -4.234275 -9.843744 2.294540
RightLeg 18.803503 -0.000000 -0.000000
RightFoot -8.997207 -27.747635 12.196528
RightToeBase -15.800803 -0.000000 0.000000
